<svg xmlns="http://www.w3.org/2000/svg" width="512" height="512" viewBox="0 0 512 512">
  <defs>
    <linearGradient id="bg" x1="0" y1="0" x2="1" y2="1">
      <stop offset="0%" stop-color="#0a3f7a"/>
      <stop offset="100%" stop-color="#09234a"/>
    </linearGradient>
  </defs>
  <rect width="512" height="512" rx="96" fill="url(#bg)"/>
  <circle cx="120" cy="120" r="38" fill="#f5b33f"/>
  <path d="M88 306V170h72c58 0 92 28 92 78 0 52-35 82-95 82h-30v58H88zm39-91h30c36 0 56-13 56-40 0-25-19-38-56-38h-30v78z" fill="#59c2ff"/>
  <path d="M264 306V170h39l78 87c14 16 30 39 30 39h1s-3-24-3-41v-85h39v136h-39l-78-87c-14-16-30-39-30-39h-1s3 24 3 41v85h-39z" fill="#ffffff"/>
</svg>
